<?xml version="1.0" encoding="UTF-8"?>
<svg xmlns="http://www.w3.org/2000/svg" style="stroke-dasharray:none; shape-rendering:auto; font-family:'Arial'; text-rendering:auto; fill-opacity:1; color-interpolation:auto; color-rendering:auto; font-size:12; fill:black; stroke:black; image-rendering:auto; stroke-miterlimit:10; stroke-linecap:square; stroke-linejoin:miter; font-style:normal; stroke-width:1; stroke-dashoffset:0; font-weight:normal; stroke-opacity:1;" contentScriptType="text/ecmascript" preserveAspectRatio="xMidYMid meet" zoomAndPan="magnify" version="1.0" contentStyleType="text/css" xml:xlink="http://www.w3.org/1999/xlink" width="941" height="421"><rect x="110" y="75" width="831" height="346" ry="0" rx="0" style="stroke:#000000; fill:#FFFFFF" /><rect x="140" y="305" width="801" height="116" ry="0" rx="0" style="stroke:#000000; fill:#82B0B7" /><g componentSequence="4"><text x="-363" y="147" transform="rotate(270)" text-anchor="middle" style="font-weight:bold;font-size:10px;stroke:none; fill:#434343"><tspan dy="14" x="-363">Fim</tspan></text></g><rect x="140" y="190" width="801" height="115" ry="0" rx="0" style="stroke:#000000; fill:#8AC5FF" /><g componentSequence="3"><text x="-247" y="147" transform="rotate(270)" text-anchor="middle" style="font-weight:bold;font-size:10px;stroke:none; fill:#434343"><tspan dy="14" x="-247">Contabilidade</tspan></text></g><rect x="140" y="75" width="801" height="115" ry="0" rx="0" style="stroke:#000000; fill:#FFFFA6" /><g componentSequence="2"><text x="-132" y="147" transform="rotate(270)" text-anchor="middle" style="font-weight:bold;font-size:10px;stroke:none; fill:#434343"><tspan dy="14" x="-132">Obra</tspan></text></g><g componentSequence="1"><text x="-248" y="117" transform="rotate(270)" text-anchor="middle" style="font-weight:bold;font-size:10px;stroke:none; fill:#434343"><tspan dy="14" x="-248">Fundo Fixo</tspan></text></g><g sequence="5"><polygon points=" 510 235 540 205 570 235 540 265 510 235" style="fill:url(#linearGradientFAFBFCFFFFCC_258824175);" stroke="000000" /></g><g componentSequence="5"><text x="540" y="268" text-anchor="middle" style="font-weight:bold;font-size:10px;stroke:none; fill:#333399"><tspan dy="14" x="540">Decisao</tspan></text></g><g sequence="6"><rect x="630" y="214" width="106" height="70" ry="5" rx="5" style="fill:url(#linearGradientF8FBFEEDF5FCDEEDFAD4E7F8E2E5E9_27965554);" stroke="191970" /></g><g componentSequence="6"><text x="683" y="229" text-anchor="middle" style="font-weight:bold;font-size:10px;stroke:none; fill:#333399"><tspan dy="14" x="683">Aprovação</tspan><tspan dy="14" x="683">Contabilidade</tspan></text></g><g sequence="7"><ellipse cx="267" cy="112" rx="17" ry="17" stroke-width="1" style="fill:url(#linearGradient66FF6696FF96B6FFB6_93666463);" stroke="336633" /></g><g sequence="8"><rect x="360" y="214" width="106" height="70" ry="5" rx="5" style="fill:url(#linearGradientF8FBFEEDF5FCDEEDFAD4E7F8E2E5E9_1083683401);" stroke="191970" /></g><g componentSequence="8"><text x="413" y="229" text-anchor="middle" style="font-weight:bold;font-size:10px;stroke:none; fill:#333399"><tspan dy="14" x="413">Aprovação</tspan><tspan dy="14" x="413">Engenheiro</tspan></text></g><g sequence="9"><ellipse cx="837" cy="364" rx="17" ry="17" stroke-width="3" style="fill:url(#linearGradientFF6666FF9696FFB6B6_631261083);" stroke="993333" /></g><g sequence="10"><polygon points=" 240 240 270 210 300 240 270 270 240 240" style="fill:url(#linearGradientFAFBFCFFFFCC_1906119285);" stroke="000000" /></g><g componentSequence="10"><text x="270" y="280" text-anchor="middle" style="font-weight:bold;font-size:10px;stroke:none; fill:#333399"><tspan dy="14" x="270">Fim/Apro</tspan><tspan dy="14" x="270">v</tspan></text></g><g sequence="11"><polygon points=" 800 235 830 205 860 235 830 265 800 235" style="fill:url(#linearGradientFAFBFCFFFFCC_1564522781);" stroke="000000" /></g><g componentSequence="11"><text x="830" y="268" text-anchor="middle" style="font-weight:bold;font-size:10px;stroke:none; fill:#333399"><tspan dy="14" x="830">S/N</tspan></text></g><g componentSequence="12"><text x="610" y="249" style="font-size:10px;font-weight:none;stroke:none; fill:#333399" text-anchor="left" /></g><g componentSequence="13"><text x="469" y="112" style="font-size:10px;font-weight:none;stroke:none; fill:#333399" text-anchor="left" /></g><g componentSequence="14"><text x="654" y="364" style="font-size:10px;font-weight:none;stroke:none; fill:#333399" text-anchor="left" /></g><g componentSequence="15"><text x="778" y="249" style="font-size:10px;font-weight:none;stroke:none; fill:#333399" text-anchor="left" /></g><g componentSequence="16"><text x="279" y="169" style="font-size:10px;font-weight:none;stroke:none; fill:#333399" text-anchor="left" /></g><g componentSequence="17"><text x="498" y="249" style="font-size:10px;font-weight:none;stroke:none; fill:#333399" text-anchor="left" /></g><g componentSequence="18"><text x="528" y="364" style="font-size:10px;font-weight:none;stroke:none; fill:#333399" text-anchor="left" /></g><g componentSequence="19"><text x="340" y="249" style="font-size:10px;font-weight:none;stroke:none; fill:#333399" text-anchor="left" /></g><g componentSequence="20"><text x="614" y="112" style="font-size:10px;font-weight:none;stroke:none; fill:#333399" text-anchor="left" /></g><g componentSequence="21"><text x="847" y="320" style="font-size:10px;font-weight:none;stroke:none; fill:#333399" text-anchor="left" /></g><path style="fill:none; stroke:#000000;stroke-width:1" d="M570.0 249.0 L629.0 249.0" /><polygon style="fill:#000000; stroke:#000000;" points=" 619 244 629 249 619 254 621 249" /><path style="fill:none; stroke:#000000;stroke-width:1" d="M540.0 204.0 L540.0 112.0 L285.0 112.0" /><polygon style="fill:#000000; stroke:#000000;" points=" 295 117 285 112 295 107 293 112" /><path style="fill:none; stroke:#000000;stroke-width:1" d="M539.0 293.0 L539.0 364.0 L819.0 364.0" /><polygon style="fill:#000000; stroke:#000000;" points=" 809 359 819 364 809 369 811 364" /><path style="fill:none; stroke:#000000;stroke-width:1" d="M466.0 249.0 L509.0 249.0" /><polygon style="fill:#000000; stroke:#000000;" points=" 499 244 509 249 499 254 501 249" /><path style="fill:none; stroke:#000000;stroke-width:1" d="M736.0 249.0 L799.0 249.0" /><polygon style="fill:#000000; stroke:#000000;" points=" 789 244 799 249 789 254 791 249" /><path style="fill:none; stroke:#000000;stroke-width:1" d="M269.0 129.0 L269.0 129.0 L269.0 209.0" /><polygon style="fill:#000000; stroke:#000000;" points=" 274 199 269 209 264 199 269 201" /><path style="fill:none; stroke:#000000;stroke-width:1" d="M830.0 204.0 L830.0 112.0 L285.0 112.0" /><polygon style="fill:#000000; stroke:#000000;" points=" 295 117 285 112 295 107 293 112" /><path style="fill:none; stroke:#000000;stroke-width:1" d="M300.0 249.0 L300.0 249.0 L359.0 249.0" /><polygon style="fill:#000000; stroke:#000000;" points=" 349 244 359 249 349 254 351 249" /><path style="fill:none; stroke:#000000;stroke-width:1" d="M269.0 312.0 L269.0 364.0 L819.0 364.0" /><polygon style="fill:#000000; stroke:#000000;" points=" 809 359 819 364 809 369 811 364" /><path style="fill:none; stroke:#000000;stroke-width:1" d="M837.0 293.0 L837.0 293.0 L837.0 346.0" /><polygon style="fill:#000000; stroke:#000000;" points=" 842 336 837 346 832 336 837 338" /><defs><linearGradient xmlns:xlink="http://www.w3.org/1999/xlink" xlink:href="#linearGradientFAFBFCFFFFCC" id="linearGradientFAFBFCFFFFCC_258824175" x1="0" y1="205.0" x2="0" y2="265.0" gradientUnits="userSpaceOnUse" xlink:type="simple" xlink:actuate="onLoad" xlink:show="other" /><linearGradient id="linearGradientFAFBFCFFFFCC"><stop style="stop-color:#FAFBFC;stop-opacity:1;" offset="0.0" id="stopFAFBFC" /><stop style="stop-color:#FFFFCC;stop-opacity:1;" offset="1.0" id="stopFFFFCC" /></linearGradient><linearGradient xmlns:xlink="http://www.w3.org/1999/xlink" xlink:href="#linearGradientF8FBFEEDF5FCDEEDFAD4E7F8E2E5E9" id="linearGradientF8FBFEEDF5FCDEEDFAD4E7F8E2E5E9_27965554" x1="0" y1="214.0" x2="0" y2="320.0" gradientUnits="userSpaceOnUse" xlink:type="simple" xlink:actuate="onLoad" xlink:show="other" /><linearGradient id="linearGradientF8FBFEEDF5FCDEEDFAD4E7F8E2E5E9"><stop style="stop-color:#F8FBFE;stop-opacity:1;" offset="0.0" id="stopF8FBFE" /><stop style="stop-color:#EDF5FC;stop-opacity:1;" offset="0.25" id="stopEDF5FC" /><stop style="stop-color:#DEEDFA;stop-opacity:1;" offset="0.5" id="stopDEEDFA" /><stop style="stop-color:#D4E7F8;stop-opacity:1;" offset="0.75" id="stopD4E7F8" /><stop style="stop-color:#E2E5E9;stop-opacity:1;" offset="1.0" id="stopE2E5E9" /></linearGradient><linearGradient xmlns:xlink="http://www.w3.org/1999/xlink" xlink:href="#linearGradient66FF6696FF96B6FFB6" id="linearGradient66FF6696FF96B6FFB6_93666463" x1="0" y1="95.0" x2="0" y2="130.0" gradientUnits="userSpaceOnUse" xlink:type="simple" xlink:actuate="onLoad" xlink:show="other" /><linearGradient id="linearGradient66FF6696FF96B6FFB6"><stop style="stop-color:#66FF66;stop-opacity:1;" offset="0.0" id="stop66FF66" /><stop style="stop-color:#96FF96;stop-opacity:1;" offset="0.5" id="stop96FF96" /><stop style="stop-color:#B6FFB6;stop-opacity:1;" offset="1.0" id="stopB6FFB6" /></linearGradient><linearGradient xmlns:xlink="http://www.w3.org/1999/xlink" xlink:href="#linearGradientF8FBFEEDF5FCDEEDFAD4E7F8E2E5E9" id="linearGradientF8FBFEEDF5FCDEEDFAD4E7F8E2E5E9_1083683401" x1="0" y1="214.0" x2="0" y2="320.0" gradientUnits="userSpaceOnUse" xlink:type="simple" xlink:actuate="onLoad" xlink:show="other" /><linearGradient xmlns:xlink="http://www.w3.org/1999/xlink" xlink:href="#linearGradientFF6666FF9696FFB6B6" id="linearGradientFF6666FF9696FFB6B6_631261083" x1="0" y1="347.0" x2="0" y2="382.0" gradientUnits="userSpaceOnUse" xlink:type="simple" xlink:actuate="onLoad" xlink:show="other" /><linearGradient id="linearGradientFF6666FF9696FFB6B6"><stop style="stop-color:#FF6666;stop-opacity:1;" offset="0.0" id="stopFF6666" /><stop style="stop-color:#FF9696;stop-opacity:1;" offset="0.5" id="stopFF9696" /><stop style="stop-color:#FFB6B6;stop-opacity:1;" offset="1.0" id="stopFFB6B6" /></linearGradient><linearGradient xmlns:xlink="http://www.w3.org/1999/xlink" xlink:href="#linearGradientFAFBFCFFFFCC" id="linearGradientFAFBFCFFFFCC_1906119285" x1="0" y1="210.0" x2="0" y2="270.0" gradientUnits="userSpaceOnUse" xlink:type="simple" xlink:actuate="onLoad" xlink:show="other" /><linearGradient xmlns:xlink="http://www.w3.org/1999/xlink" xlink:href="#linearGradientFAFBFCFFFFCC" id="linearGradientFAFBFCFFFFCC_1564522781" x1="0" y1="205.0" x2="0" y2="265.0" gradientUnits="userSpaceOnUse" xlink:type="simple" xlink:actuate="onLoad" xlink:show="other" /></defs></svg>
